<svg data-id="backdrop-272" data-footprint="272x30cm" xmlns="http://www.w3.org/2000/svg" viewBox="0 0 294 114.33" data-front="top"><g transform="translate(147,111.33)"><polygon points="-136,-5.91 136,-5.91 136,-46.54 -136,-46.54" fill="var(--icon-face)" opacity="0.6"></polygon><polygon points="-136,-5.91 136,-5.91 136,-108.33 -136,-108.33" fill="var(--icon-face)" opacity="0.6"></polygon><polygon points="-136,-11.12 136,-11.12 136,-42.72 -136,-42.72" fill="var(--icon-surface, #FFB347)"></polygon><g class="detail"><line x1="-136" y1="-11.12" x2="136" y2="-11.12" fill="none" stroke="var(--icon-line)" stroke-width="1" vector-effect="non-scaling-stroke" stroke-linejoin="round" stroke-linecap="round" stroke-dasharray="2.5 2.5" opacity="0.7"></line></g><ellipse cx="-136" cy="-41.68" rx="6" ry="1.04" fill="var(--icon-surface, #FFB347)" stroke="var(--icon-line)" stroke-width="1" vector-effect="non-scaling-stroke" stroke-linejoin="round" stroke-linecap="round"></ellipse><ellipse cx="136" cy="-41.68" rx="6" ry="1.04" fill="var(--icon-surface, #FFB347)" stroke="var(--icon-line)" stroke-width="1" vector-effect="non-scaling-stroke" stroke-linejoin="round" stroke-linecap="round"></ellipse><line x1="-136" y1="-42.72" x2="136" y2="-42.72" fill="none" stroke="var(--icon-line)" stroke-width="1" vector-effect="non-scaling-stroke" stroke-linejoin="round" stroke-linecap="round"></line><line x1="-136" y1="-40.63" x2="136" y2="-40.63" fill="none" stroke="var(--icon-line)" stroke-width="1" vector-effect="non-scaling-stroke" stroke-linejoin="round" stroke-linecap="round"></line><line x1="-136" y1="-46.54" x2="-136" y2="-5.91" fill="none" stroke="var(--icon-line)" stroke-width="1" vector-effect="non-scaling-stroke" stroke-linejoin="round" stroke-linecap="round"></line><line x1="136" y1="-46.54" x2="136" y2="-5.91" fill="none" stroke="var(--icon-line)" stroke-width="1" vector-effect="non-scaling-stroke" stroke-linejoin="round" stroke-linecap="round"></line><line x1="-136" y1="-5.91" x2="-136" y2="-108.33" fill="none" stroke="var(--icon-line)" stroke-width="1" vector-effect="non-scaling-stroke" stroke-linejoin="round" stroke-linecap="round"></line><line x1="136" y1="-5.91" x2="136" y2="-108.33" fill="none" stroke="var(--icon-line)" stroke-width="1" vector-effect="non-scaling-stroke" stroke-linejoin="round" stroke-linecap="round"></line><line x1="-136" y1="-108.33" x2="136" y2="-108.33" fill="none" stroke="var(--icon-line)" stroke-width="1" vector-effect="non-scaling-stroke" stroke-linejoin="round" stroke-linecap="round"></line><line x1="-144" y1="0" x2="-144" y2="-41.68" fill="none" stroke="var(--icon-line)" stroke-width="1" vector-effect="non-scaling-stroke" stroke-linejoin="round" stroke-linecap="round"></line><line x1="144" y1="0" x2="144" y2="-41.68" fill="none" stroke="var(--icon-line)" stroke-width="1" vector-effect="non-scaling-stroke" stroke-linejoin="round" stroke-linecap="round"></line></g></svg>