<svg xmlns="http://www.w3.org/2000/svg" viewBox="0 0 900 520" width="100%" height="100%" preserveAspectRatio="xMidYMid meet" style="color:#0B0C0C" opacity="0.22" fill="none" stroke="currentColor" stroke-width="1.5" stroke-linecap="round" stroke-linejoin="round">
  <defs><marker id="a" viewBox="0 0 10 10" refX="10" refY="5" markerWidth="7" markerHeight="7" orient="auto-start-reverse"><path d="M0 0.5 L10 5 L0 9.5 Z" fill="currentColor" stroke="none"></path></marker></defs>
  <g opacity="0.4" stroke-width="0.75">
  <line x1="330" y1="105.00" x2="570" y2="15.00"></line><line x1="330" y1="121.67" x2="570" y2="31.67"></line><line x1="330" y1="138.33" x2="570" y2="48.33"></line><line x1="330" y1="155.00" x2="570" y2="65.00"></line><line x1="330" y1="171.67" x2="570" y2="81.67"></line><line x1="330" y1="188.33" x2="570" y2="98.33"></line><line x1="330" y1="205.00" x2="570" y2="115.00"></line><line x1="330" y1="221.67" x2="570" y2="131.67"></line><line x1="330" y1="238.33" x2="570" y2="148.33"></line><line x1="330" y1="255.00" x2="570" y2="165.00"></line><line x1="330" y1="271.67" x2="570" y2="181.67"></line><line x1="330" y1="288.33" x2="570" y2="198.33"></line><line x1="330" y1="305.00" x2="570" y2="215.00"></line><line x1="330" y1="321.67" x2="570" y2="231.67"></line><line x1="330" y1="338.33" x2="570" y2="248.33"></line><line x1="330" y1="355.00" x2="570" y2="265.00"></line><line x1="330" y1="371.67" x2="570" y2="281.67"></line><line x1="330" y1="388.33" x2="570" y2="298.33"></line><line x1="330" y1="405.00" x2="570" y2="315.00"></line><line x1="330" y1="421.67" x2="570" y2="331.67"></line><line x1="330" y1="438.33" x2="570" y2="348.33"></line><line x1="330" y1="455.00" x2="570" y2="365.00"></line><line x1="330" y1="471.67" x2="570" y2="381.67"></line><line x1="330" y1="488.33" x2="570" y2="398.33"></line><line x1="330" y1="505.00" x2="570" y2="415.00"></line><line x1="330.00" y1="105.00" x2="330.00" y2="505.00"></line><line x1="340.00" y1="101.25" x2="340.00" y2="501.25"></line><line x1="350.00" y1="97.50" x2="350.00" y2="497.50"></line><line x1="360.00" y1="93.75" x2="360.00" y2="493.75"></line><line x1="370.00" y1="90.00" x2="370.00" y2="490.00"></line><line x1="380.00" y1="86.25" x2="380.00" y2="486.25"></line><line x1="390.00" y1="82.50" x2="390.00" y2="482.50"></line><line x1="400.00" y1="78.75" x2="400.00" y2="478.75"></line><line x1="410.00" y1="75.00" x2="410.00" y2="475.00"></line><line x1="420.00" y1="71.25" x2="420.00" y2="471.25"></line><line x1="430.00" y1="67.50" x2="430.00" y2="467.50"></line><line x1="440.00" y1="63.75" x2="440.00" y2="463.75"></line><line x1="450.00" y1="60.00" x2="450.00" y2="460.00"></line><line x1="460.00" y1="56.25" x2="460.00" y2="456.25"></line><line x1="470.00" y1="52.50" x2="470.00" y2="452.50"></line><line x1="480.00" y1="48.75" x2="480.00" y2="448.75"></line><line x1="490.00" y1="45.00" x2="490.00" y2="445.00"></line><line x1="500.00" y1="41.25" x2="500.00" y2="441.25"></line><line x1="510.00" y1="37.50" x2="510.00" y2="437.50"></line><line x1="520.00" y1="33.75" x2="520.00" y2="433.75"></line><line x1="530.00" y1="30.00" x2="530.00" y2="430.00"></line><line x1="540.00" y1="26.25" x2="540.00" y2="426.25"></line><line x1="550.00" y1="22.50" x2="550.00" y2="422.50"></line><line x1="560.00" y1="18.75" x2="560.00" y2="418.75"></line><line x1="570.00" y1="15.00" x2="570.00" y2="415.00"></line>
  <path d="M330 105 L570 15 L570 415 L330 505 Z"></path>
  </g>
  <line x1="47" y1="260" x2="853" y2="260" stroke-dasharray="6 14"></line><line x1="47" y1="260" x2="37" y2="260" marker-end="url(#a)"></line><line x1="853" y1="260" x2="863" y2="260" marker-end="url(#a)"></line>
  <line x1="450" y1="493" x2="450" y2="27" stroke-dasharray="6 14"></line><line x1="450" y1="493" x2="450" y2="503" marker-end="url(#a)"></line><line x1="450" y1="27" x2="450" y2="17" marker-end="url(#a)"></line>
  <line x1="297.36" y1="317.24" x2="602.64" y2="202.76" stroke-dasharray="6 14"></line><line x1="297.36" y1="317.24" x2="288" y2="320.75" marker-end="url(#a)"></line><line x1="602.64" y1="202.76" x2="612" y2="199.25" marker-end="url(#a)"></line>
  <ellipse cx="194" cy="260" rx="30" ry="200"></ellipse>
  <line x1="194" y1="60" x2="450" y2="260"></line><line x1="194" y1="460" x2="450" y2="260"></line>
  <ellipse cx="706" cy="260" rx="30" ry="200"></ellipse>
  <line x1="706" y1="60" x2="450" y2="260"></line><line x1="706" y1="460" x2="450" y2="260"></line>
</svg>
